<svg width="180" height="36" viewBox="0 0 180 36" fill="none" xmlns="http://www.w3.org/2000/svg">
<path d="M50.5488 10.3007H52.2938L54.9386 17.0232L57.6107 10.3007H59.383L56.1001 18.3864L59.6993 26.9503L66.4994 10.1688H68.5117L60.5445 29.1105H58.9031L54.9604 19.7441L50.9905 29.1105H49.3763L41.4419 10.1688H43.4269L50.2543 26.9503L53.8262 18.3864L50.5488 10.3007Z" fill="white"/>
<path d="M71.1672 29.1105V10.1688H78.949C79.7615 10.1688 80.5086 10.3392 81.1848 10.6745C81.8665 11.0153 82.4499 11.4715 82.9462 12.0487C83.4424 12.6258 83.8296 13.269 84.1132 13.9725C84.3967 14.6761 84.5385 15.3907 84.5385 16.1218C84.5385 17.1551 84.3149 18.1281 83.8623 19.046C83.4097 19.964 82.7826 20.706 81.9701 21.2722C81.1575 21.8438 80.2032 22.1242 79.1126 22.1242H73.0268V29.116H71.1672V29.1105ZM73.0213 20.4642H79.0308C79.7724 20.4642 80.4159 20.2608 80.9612 19.8485C81.5065 19.4363 81.9319 18.9086 82.2318 18.249C82.5317 17.5894 82.6844 16.8803 82.6844 16.1163C82.6844 15.3357 82.5099 14.6157 82.1555 13.956C81.801 13.2964 81.3375 12.7797 80.7649 12.395C80.1923 12.0102 79.5597 11.8233 78.8726 11.8233H73.0213V20.4642Z" fill="white"/>
<path d="M93.5227 15.715V29.1105H90.5562V10.1688H92.9937L103.633 23.8556V10.1908H106.627V29.105H104.031L93.5227 15.715Z" fill="white"/>
<path d="M110.488 12.8622V9.63564H113.4V12.8622H110.488ZM110.488 29.1105V15.1543H113.4V29.1105H110.488Z" fill="white"/>
<path d="M122.376 29.344C121.444 29.344 120.587 29.1516 119.808 28.7723C119.033 28.3876 118.363 27.8709 117.806 27.2113C117.25 26.5516 116.819 25.7986 116.508 24.9411C116.198 24.0891 116.045 23.1877 116.045 22.2477C116.045 21.2528 116.203 20.3184 116.519 19.4444C116.836 18.5759 117.283 17.8009 117.855 17.1358C118.428 16.4707 119.104 15.9485 119.879 15.5747C120.653 15.2009 121.52 15.014 122.474 15.014C123.587 15.014 124.563 15.2779 125.397 15.8001C126.237 16.3278 126.93 17.0148 127.475 17.8668V15.2339H130.043V28.7174C130.043 30.064 129.722 31.2019 129.078 32.1418C128.435 33.0817 127.557 33.7963 126.444 34.291C125.332 34.7857 124.078 35.0331 122.687 35.0331C121.149 35.0331 119.879 34.7637 118.875 34.2306C117.872 33.6974 117.016 32.9663 116.307 32.0429L117.948 30.4928C118.477 31.2403 119.159 31.8065 119.999 32.2023C120.838 32.5925 121.733 32.7904 122.687 32.7904C123.483 32.7904 124.219 32.6475 124.896 32.3672C125.577 32.0868 126.117 31.6471 126.526 31.059C126.93 30.4653 127.137 29.7233 127.137 28.8163V26.6836C126.641 27.5191 125.964 28.1732 125.097 28.6459C124.236 29.1076 123.325 29.344 122.376 29.344ZM123.325 26.9694C123.767 26.9694 124.187 26.8924 124.596 26.744C124.999 26.5956 125.375 26.3867 125.719 26.1284C126.062 25.8701 126.357 25.5787 126.608 25.2489C126.853 24.9191 127.033 24.5673 127.137 24.1936V20.5382C126.908 19.9336 126.581 19.4059 126.155 18.9497C125.73 18.4935 125.255 18.1472 124.726 17.8943C124.197 17.6415 123.658 17.5205 123.112 17.5205C122.474 17.5205 121.907 17.658 121.405 17.9328C120.904 18.2076 120.473 18.5759 120.124 19.0266C119.775 19.4774 119.497 19.9941 119.306 20.5602C119.11 21.1319 119.017 21.7145 119.017 22.3192C119.017 22.9623 119.126 23.5559 119.35 24.1056C119.568 24.6553 119.873 25.15 120.26 25.5842C120.647 26.0185 121.106 26.3593 121.634 26.5956C122.163 26.854 122.725 26.9694 123.325 26.9694Z" fill="white"/>
<path d="M145.961 29.1105H143.049V21.3821C143.049 20.1343 142.82 19.1999 142.362 18.5843C141.904 17.9686 141.26 17.6608 140.432 17.6608C139.919 17.6608 139.39 17.7982 138.845 18.0786C138.299 18.3589 137.814 18.7382 137.389 19.2219C136.963 19.7056 136.658 20.2553 136.462 20.8874V29.105H133.55V9.63012H136.462V18.0566C136.991 17.1221 137.716 16.3856 138.632 15.8524C139.548 15.3137 140.535 15.0444 141.599 15.0444C142.46 15.0444 143.18 15.1928 143.742 15.4951C144.309 15.7919 144.75 16.2042 145.078 16.7264C145.405 17.2486 145.634 17.8477 145.765 18.5238C145.896 19.1999 145.961 19.92 145.961 20.6785V29.1105Z" fill="white"/>
<path d="M156.944 28.4399C156.698 28.5663 156.387 28.6983 156.017 28.8412C155.646 28.9841 155.226 29.1105 154.757 29.2149C154.288 29.3194 153.808 29.3743 153.312 29.3743C152.712 29.3743 152.156 29.2699 151.643 29.0555C151.131 28.8412 150.722 28.5004 150.411 28.0331C150.1 27.5659 149.947 26.9558 149.947 26.2137V17.5289H148.12V15.2643H149.947V10.6745H152.859V15.2643H155.875V17.5344H152.859V25.2793C152.892 25.7575 153.05 26.1093 153.323 26.3402C153.595 26.571 153.933 26.6865 154.342 26.6865C154.751 26.6865 155.139 26.615 155.509 26.4721C155.88 26.3292 156.153 26.2137 156.327 26.1258L156.944 28.4399Z" fill="white"/>
<path d="M160.303 9.63012H163.215V25.1254C163.215 25.8399 163.319 26.2962 163.531 26.4885C163.744 26.6864 164.006 26.7854 164.327 26.7854C164.682 26.7854 165.009 26.7524 165.32 26.6809C165.631 26.6095 165.898 26.5215 166.127 26.4116L166.552 28.7312C166.127 28.9071 165.625 29.061 165.042 29.1874C164.458 29.3139 163.94 29.3743 163.482 29.3743C162.495 29.3743 161.715 29.094 161.154 28.5333C160.587 27.9727 160.308 27.1921 160.308 26.1917V9.63012H160.303Z" fill="white"/>
<path d="M168.139 32.3921C168.406 32.425 168.663 32.469 168.919 32.513C169.175 32.557 169.383 32.5789 169.541 32.5789C169.841 32.5789 170.102 32.4855 170.321 32.2986C170.539 32.1117 170.768 31.7709 170.997 31.2817C171.226 30.787 171.509 30.0724 171.842 29.1435L166.154 15.2643H169.197L173.434 26.1698L177.192 15.2643H180L173.729 32.3536C173.533 32.8648 173.254 33.3375 172.884 33.7717C172.513 34.206 172.055 34.5468 171.509 34.7941C170.964 35.0415 170.321 35.1679 169.579 35.1679C169.366 35.1679 169.148 35.1514 168.919 35.1129C168.69 35.0745 168.434 35.025 168.15 34.9535V32.3921H168.139Z" fill="white"/>
<path d="M16.4651 35.2693C7.38916 35.2693 0 27.8262 0 18.6728C0 9.51941 7.38916 2.07131 16.4651 2.07131C17.5349 2.07131 18.6147 2.17664 19.6646 2.38729L21.7545 2.80358L20.0328 4.06249C17.7887 5.70257 16.4502 8.34577 16.4502 11.1344C16.4502 15.9544 20.3413 19.8765 25.1231 19.8765C27.4767 19.8765 29.681 18.9436 31.3231 17.2434L32.8158 15.6986L32.9153 17.8502C32.9253 18.1161 32.9352 18.3919 32.9352 18.6628C32.9352 27.8262 25.5461 35.2693 16.4651 35.2693ZM16.4651 3.94211C8.40921 3.94211 1.856 10.5526 1.856 18.6728C1.856 26.793 8.40921 33.3985 16.4651 33.3985C24.1031 33.3985 30.3876 27.4651 31.0245 19.9317C29.2979 21.1154 27.2628 21.7523 25.1231 21.7523C19.3163 21.7523 14.5942 16.9926 14.5942 11.1394C14.5942 8.47116 15.6043 5.91323 17.3608 3.97221C17.0622 3.95214 16.7637 3.94211 16.4651 3.94211Z" fill="white"/>
<path d="M16.4699 30.369C10.071 30.369 4.86621 25.1228 4.86621 18.6728C4.86621 13.8278 7.80695 9.65984 11.9817 7.88433C11.723 8.9376 11.5886 10.031 11.5886 11.1394C11.5886 18.6628 17.6592 24.7817 25.123 24.7817C25.5509 24.7817 25.9738 24.7617 26.3968 24.7215C24.3616 28.102 20.6696 30.369 16.4699 30.369Z" fill="white"/>
<path d="M25.1229 21.7523C19.3161 21.7523 14.594 16.9926 14.594 11.1394C14.594 7.75394 16.2211 4.53897 18.9429 2.5478C20.7392 1.22369 22.8738 0.521515 25.1229 0.521515C30.9298 0.521515 35.6518 5.28127 35.6518 11.1344C35.6518 13.9281 34.587 16.5612 32.6464 18.5524C30.6561 20.6188 27.984 21.7523 25.1229 21.7523ZM25.1229 2.39232C23.2719 2.39232 21.5154 2.9691 20.0326 4.05748C17.7885 5.69756 16.445 8.34578 16.445 11.1344C16.445 15.9544 20.3361 19.8765 25.1179 19.8765C27.4715 19.8765 29.6758 18.9436 31.3179 17.2434C32.9151 15.6033 33.7909 13.4315 33.7909 11.1344C33.7958 6.31448 29.9047 2.39232 25.1229 2.39232Z" fill="white"/>
</svg>
