<svg width="130" height="26" viewBox="0 0 130 26" fill="none" xmlns="http://www.w3.org/2000/svg">
<path d="M36.5074 7.06278H37.7677L39.6778 11.9179L41.6076 7.06278H42.8876L40.5167 12.9024L43.1161 19.0874L48.0273 6.9675H49.4806L43.7265 20.6476H42.541L39.6936 13.883L36.8264 20.6476H35.6606L29.9302 6.9675H31.3638L36.2947 19.0874L38.8744 12.9024L36.5074 7.06278Z" fill="#171E49"/>
<path d="M51.3984 20.6476V6.9675H57.0186C57.6054 6.9675 58.145 7.09056 58.6333 7.33273C59.1257 7.57886 59.5471 7.90835 59.9055 8.32519C60.2639 8.74202 60.5435 9.20649 60.7483 9.71464C60.9531 10.2228 61.0555 10.7389 61.0555 11.2668C61.0555 12.0132 60.894 12.7158 60.5671 13.3788C60.2402 14.0418 59.7873 14.5777 59.2005 14.9866C58.6136 15.3995 57.9244 15.6019 57.1367 15.6019H52.7414V20.6516H51.3984V20.6476ZM52.7375 14.403H57.0777C57.6133 14.403 58.078 14.2561 58.4719 13.9584C58.8657 13.6607 59.1729 13.2796 59.3895 12.8032C59.6061 12.3268 59.7164 11.8147 59.7164 11.2629C59.7164 10.6992 59.5904 10.1791 59.3344 9.70273C59.0784 9.22634 58.7436 8.85318 58.3301 8.57529C57.9165 8.2974 57.4597 8.16242 56.9634 8.16242H52.7375V14.403V14.403Z" fill="#171E49"/>
<path d="M67.5444 10.9731V20.6476H65.4019V6.9675H67.1623L74.8462 16.8524V6.98338H77.0084V20.6436H75.1337L67.5444 10.9731Z" fill="#171E49"/>
<path d="M79.7969 8.91273V6.58243H81.9V8.91273H79.7969ZM79.7969 20.6476V10.5682H81.9V20.6476H79.7969Z" fill="#171E49"/>
<path d="M88.3826 20.8162C87.7091 20.8162 87.0908 20.6773 86.5276 20.4034C85.9683 20.1255 85.4839 19.7523 85.0822 19.2759C84.6805 18.7995 84.3693 18.2557 84.1448 17.6364C83.9203 17.0211 83.8101 16.37 83.8101 15.6911C83.8101 14.9726 83.9243 14.2977 84.1527 13.6665C84.3811 13.0393 84.7041 12.4795 85.1176 11.9992C85.5312 11.5188 86.0195 11.1417 86.5788 10.8718C87.138 10.6018 87.7643 10.4668 88.4535 10.4668C89.2569 10.4668 89.9619 10.6574 90.5645 11.0345C91.171 11.4156 91.6712 11.9119 92.065 12.5272V10.6256H93.92V20.3637C93.92 21.3363 93.6877 22.158 93.2229 22.8369C92.7582 23.5157 92.1241 24.0318 91.3207 24.3891C90.5172 24.7464 89.6114 24.925 88.6071 24.925C87.4964 24.925 86.5788 24.7305 85.8541 24.3454C85.1294 23.9603 84.5111 23.4324 83.9991 22.7654L85.1846 21.6459C85.5666 22.1858 86.0589 22.5947 86.6654 22.8805C87.2719 23.1624 87.9178 23.3053 88.6071 23.3053C89.1821 23.3053 89.7138 23.2021 90.2021 22.9996C90.6945 22.7972 91.0844 22.4796 91.3797 22.0548C91.6712 21.6261 91.8208 21.0901 91.8208 20.4351V18.8948C91.4624 19.4982 90.9741 19.9706 90.3479 20.3121C89.7256 20.6455 89.0679 20.8162 88.3826 20.8162ZM89.0679 19.1013C89.3869 19.1013 89.6901 19.0457 89.9855 18.9385C90.277 18.8313 90.5487 18.6804 90.7969 18.4939C91.045 18.3073 91.2576 18.0969 91.4388 17.8587C91.616 17.6205 91.746 17.3664 91.8208 17.0965V14.4565C91.6554 14.0198 91.4191 13.6387 91.1119 13.3092C90.8047 12.9797 90.4621 12.7296 90.0801 12.547C89.698 12.3644 89.3081 12.2771 88.9143 12.2771C88.4535 12.2771 88.0439 12.3763 87.6815 12.5748C87.3192 12.7733 87.0081 13.0393 86.756 13.3648C86.504 13.6903 86.3031 14.0635 86.1652 14.4724C86.0235 14.8853 85.9565 15.3061 85.9565 15.7428C85.9565 16.2072 86.0353 16.636 86.1968 17.033C86.3543 17.4299 86.5748 17.7872 86.8545 18.1009C87.1341 18.4145 87.4649 18.6606 87.847 18.8313C88.229 19.0179 88.6347 19.1013 89.0679 19.1013Z" fill="#171E49"/>
<path d="M105.416 20.6476H103.313V15.066C103.313 14.1648 103.147 13.4899 102.817 13.0453C102.486 12.6007 102.021 12.3784 101.422 12.3784C101.052 12.3784 100.67 12.4776 100.276 12.6801C99.8825 12.8826 99.532 13.1565 99.2248 13.5058C98.9176 13.8552 98.6971 14.2522 98.5553 14.7087V20.6436H96.4521V6.57843H98.5553V12.6642C98.9373 11.9893 99.4611 11.4574 100.123 11.0723C100.784 10.6833 101.497 10.4887 102.265 10.4887C102.888 10.4887 103.407 10.5959 103.813 10.8143C104.223 11.0286 104.542 11.3264 104.778 11.7035C105.014 12.0806 105.18 12.5134 105.274 13.0016C105.369 13.4899 105.416 14.01 105.416 14.5578V20.6476V20.6476Z" fill="#171E49"/>
<path d="M113.348 20.1633C113.171 20.2546 112.946 20.3499 112.678 20.4531C112.411 20.5563 112.107 20.6476 111.769 20.723C111.43 20.7985 111.083 20.8382 110.725 20.8382C110.292 20.8382 109.89 20.7627 109.52 20.6079C109.15 20.4531 108.854 20.207 108.63 19.8695C108.405 19.5321 108.295 19.0914 108.295 18.5555V12.2831H106.976V10.6476H108.295V7.33273H110.398V10.6476H112.576V12.2871H110.398V17.8806C110.422 18.226 110.536 18.4801 110.733 18.6468C110.93 18.8135 111.174 18.8969 111.469 18.8969C111.765 18.8969 112.044 18.8453 112.312 18.7421C112.58 18.6389 112.777 18.5555 112.903 18.492L113.348 20.1633Z" fill="#171E49"/>
<path d="M115.774 6.57843H117.878V17.7694C117.878 18.2855 117.952 18.615 118.106 18.754C118.26 18.8969 118.449 18.9683 118.681 18.9683C118.937 18.9683 119.173 18.9445 119.398 18.8929C119.622 18.8413 119.815 18.7778 119.981 18.6984L120.288 20.3737C119.981 20.5007 119.618 20.6118 119.197 20.7032C118.776 20.7945 118.401 20.8381 118.071 20.8381C117.358 20.8381 116.794 20.6357 116.389 20.2307C115.979 19.8258 115.778 19.2621 115.778 18.5396V6.57843H115.774Z" fill="#171E49"/>
<path d="M121.434 23.0176C121.627 23.0414 121.812 23.0732 121.997 23.1049C122.182 23.1367 122.332 23.1526 122.446 23.1526C122.663 23.1526 122.852 23.0851 123.009 22.9501C123.167 22.8151 123.332 22.569 123.498 22.2157C123.663 21.8584 123.868 21.3423 124.108 20.6714L120 10.6476H122.198L125.258 18.5237L127.972 10.6476H130L125.471 22.9898C125.329 23.359 125.128 23.7004 124.861 24.014C124.593 24.3277 124.262 24.5738 123.868 24.7524C123.474 24.9311 123.009 25.0224 122.474 25.0224C122.32 25.0224 122.163 25.0105 121.997 24.9827C121.832 24.9549 121.647 24.9192 121.442 24.8676V23.0176H121.434Z" fill="#171E49"/>
<path d="M11.8915 25.0956C5.33661 25.0956 0 19.72 0 13.1092C0 6.49847 5.33661 1.11929 11.8915 1.11929C12.6641 1.11929 13.444 1.19536 14.2022 1.3475L15.7116 1.64816L14.4682 2.55736C12.8474 3.74187 11.8807 5.65084 11.8807 7.66487C11.8807 11.1459 14.691 13.9786 18.1445 13.9786C19.8443 13.9786 21.4363 13.3049 22.6222 12.0769L23.7003 10.9612L23.7722 12.5152C23.7794 12.7072 23.7866 12.9064 23.7866 13.102C23.7866 19.72 18.4499 25.0956 11.8915 25.0956ZM11.8915 2.47043C6.07332 2.47043 1.34044 7.24468 1.34044 13.1092C1.34044 18.9738 6.07332 23.7445 11.8915 23.7445C17.4078 23.7445 21.9466 19.4592 22.4066 14.0185C21.1596 14.8733 19.6898 15.3334 18.1445 15.3334C13.9507 15.3334 10.5403 11.8958 10.5403 7.66849C10.5403 5.7414 11.2698 3.89401 12.5383 2.49216C12.3227 2.47767 12.1071 2.47043 11.8915 2.47043Z" fill="#4B2188"/>
<path d="M11.8951 21.5566C7.27364 21.5566 3.51465 17.7676 3.51465 13.1093C3.51465 9.61007 5.63851 6.59991 8.65361 5.3176C8.46674 6.07829 8.36971 6.86796 8.36971 7.6685C8.36971 13.102 12.754 17.5213 18.1445 17.5213C18.4536 17.5213 18.759 17.5068 19.0645 17.4778C17.5947 19.9193 14.9282 21.5566 11.8951 21.5566Z" fill="#4B2188"/>
<path d="M18.1443 15.3334C13.9504 15.3334 10.54 11.8958 10.54 7.6685C10.54 5.22342 11.7152 2.9015 13.6809 1.46343C14.9782 0.507128 16.5199 0 18.1443 0C22.3381 0 25.7485 3.4376 25.7485 7.66488C25.7485 9.68252 24.9794 11.5843 23.5779 13.0223C22.1404 14.5147 20.2106 15.3334 18.1443 15.3334ZM18.1443 1.35113C16.8074 1.35113 15.5388 1.7677 14.4679 2.55375C12.8472 3.73826 11.8769 5.65085 11.8769 7.66488C11.8769 11.1459 14.6871 13.9786 18.1407 13.9786C19.8405 13.9786 21.4325 13.3049 22.6184 12.0769C23.772 10.8924 24.4045 9.32391 24.4045 7.66488C24.408 4.18381 21.5978 1.35113 18.1443 1.35113Z" fill="#4B2188"/>
</svg>
