<svg width="96" height="96" viewBox="0 0 96 96" fill="none" xmlns="http://www.w3.org/2000/svg">
<g clip-path="url(#clip0_1066_757)">
<path d="M60 0C79.8822 0 96 16.1177 96 36V60C96 79.8822 79.8822 96 60 96H36C16.1177 96 0 79.8822 0 60V36C0 16.1177 16.1177 0 36 0H60ZM59.9814 18.2275C56.3785 18.2276 52.9361 19.2763 49.9854 21.2627C48.4043 20.9917 46.7988 20.8526 45.1934 20.8525C29.6511 20.8525 17.0127 33.4909 17.0127 49.0332C17.0129 64.5752 29.6633 77.2129 45.1934 77.2129C60.7233 77.2127 73.3613 64.5748 73.3613 49.0205C73.3613 48.7834 73.3567 48.5494 73.3506 48.3184C76.3573 45.0076 78.0029 40.7496 78.0029 36.249C78.0029 26.3088 69.9216 18.2275 59.9814 18.2275ZM45.1934 24.0361C45.6894 24.0361 46.1976 24.0472 46.7178 24.0713C43.7036 27.3652 41.9727 31.7162 41.9727 36.249C41.9727 46.1892 50.0539 54.2705 59.9941 54.2705C62.9505 54.2705 65.7866 53.5645 68.3193 52.2363C68.3731 52.2083 68.426 52.1789 68.4795 52.1504C68.5867 52.0927 68.6937 52.0345 68.7998 51.9746C69.2445 51.7254 69.6808 51.4596 70.1045 51.1719C69.0107 63.9554 58.2564 74.0291 45.1934 74.0293C31.4132 74.0293 20.1965 62.8132 20.1963 49.0332C20.1963 35.2529 31.4131 24.0361 45.1934 24.0361ZM37.5127 30.7197C30.3675 33.7335 25.3369 40.8065 25.3369 49.0332C25.3371 59.9819 34.2447 68.8887 45.1934 68.8887C52.387 68.8886 58.694 65.0493 62.1816 59.3018C61.4646 59.3625 60.735 59.3984 60.0059 59.3984C47.2345 59.3982 36.8449 49.0086 36.8447 36.2373C36.8447 34.3659 37.0752 32.506 37.5127 30.7197ZM59.9941 21.4111C68.1844 21.4113 74.8436 28.0714 74.8193 36.2373C74.8192 40.1498 73.3246 43.8316 70.5908 46.6143C70.5031 46.7043 70.4138 46.7934 70.3242 46.8809C67.5489 49.5849 63.8966 51.0742 59.9941 51.0742C51.8161 51.0742 45.1565 44.4153 45.1562 36.2373C45.1562 34.2323 45.5665 32.2729 46.3291 30.4688C47.3731 28.0145 49.0711 25.8449 51.2812 24.2432C53.821 22.3961 56.8347 21.4111 59.9941 21.4111Z" fill="black"/>
</g>
<defs>
<clipPath id="clip0_1066_757">
<rect width="96" height="96" fill="white"/>
</clipPath>
</defs>
</svg>
