<svg width="96" height="96" viewBox="0 0 96 96" fill="none" xmlns="http://www.w3.org/2000/svg">
<rect width="96" height="96" rx="36" fill="url(#paint0_linear_43_2050)"/>
<path d="M45.1931 77.213C29.6629 77.213 17.0128 64.575 17.0128 49.0328C17.0128 33.4905 29.6508 20.8525 45.1931 20.8525C47.028 20.8525 48.8629 21.0348 50.6614 21.3872L54.2341 22.092L51.2812 24.2307C47.4412 27.0135 45.1566 31.4976 45.1566 36.2368C45.1566 44.415 51.8159 51.0743 59.9941 51.0743C64.0285 51.0743 67.7956 49.4824 70.6027 46.6024L73.1546 43.9776L73.3247 47.6353C73.349 48.0849 73.3612 48.5467 73.3612 49.0206C73.3612 64.575 60.7232 77.213 45.1931 77.213ZM45.1931 24.0363C31.4128 24.0363 20.1966 35.2525 20.1966 49.0328C20.1966 62.813 31.4128 74.0292 45.1931 74.0292C58.2564 74.0292 69.0108 63.9553 70.1045 51.1715C67.1516 53.1765 63.664 54.2581 60.0062 54.2581C50.066 54.2581 41.985 46.1771 41.985 36.2368C41.985 31.7041 43.7105 27.3659 46.7242 24.0727C46.2017 24.0484 45.6913 24.0363 45.1931 24.0363Z" fill="white"/>
<path d="M45.1931 68.889C34.2443 68.889 25.3369 59.9817 25.3369 49.0328C25.3369 40.806 30.3678 33.7336 37.5131 30.7199C37.0756 32.5062 36.8448 34.3655 36.8448 36.2369C36.8448 49.0085 47.2346 59.3984 60.0063 59.3984C60.7354 59.3984 61.4645 59.3619 62.1815 59.3012C58.6939 65.049 52.387 68.889 45.1931 68.889Z" fill="white"/>
<path d="M59.9939 54.2702C50.0537 54.2702 41.9727 46.1892 41.9727 36.249C41.9727 30.5011 44.7554 25.0449 49.4096 21.6667C52.4841 19.4186 56.1418 18.2277 59.9818 18.2277C69.922 18.2277 78.003 26.3087 78.003 36.249C78.003 40.9882 76.1803 45.4601 72.8628 48.8384C69.4603 52.3381 64.8911 54.2702 59.9939 54.2702ZM59.9939 21.4115C56.8344 21.4115 53.8208 22.3958 51.281 24.2429C47.441 27.0257 45.1443 31.5219 45.1443 36.249C45.1443 44.4272 51.8035 51.0865 59.9818 51.0865C64.0162 51.0865 67.7833 49.4946 70.5904 46.6146C73.3246 43.8318 74.8192 40.1497 74.8192 36.2368C74.8435 28.0708 68.1843 21.4115 59.9939 21.4115Z" fill="white"/>
<defs>
<linearGradient id="paint0_linear_43_2050" x1="0" y1="0" x2="115.11" y2="58.2088" gradientUnits="userSpaceOnUse">
<stop stop-color="#4B1F85"/>
<stop offset="1" stop-color="#1C1154"/>
</linearGradient>
</defs>
</svg>
